<?xml version="1.0" encoding="utf-8"?>
<!-- Generator: Adobe Illustrator 22.0.0, SVG Export Plug-In . SVG Version: 6.00 Build 0)  -->
<svg version="1.1" id="Capa_1" xmlns="http://www.w3.org/2000/svg" xmlns:xlink="http://www.w3.org/1999/xlink" x="0px" y="0px"
	 viewBox="0 0 585 115" style="enable-background:new 0 0 585 115;" xml:space="preserve">
<style type="text/css">
	.st0{fill:#171717;}
	.st1{fill:#FFFFFF;}
	.st2{fill:#BA1E30;}
	.st3{fill:#E0243A;}
	.st4{fill:#FA2840;}
</style>
<rect y="-0.5" class="st0" width="585" height="116"/>
<g>
	<g>
		<path class="st1" d="M290.8,62.3v48h-21.4V65.7c0-12-4.5-17.7-13.8-17.7c-11,0-17.8,7.9-17.8,20.7v41.6h-21.4V31h14.7l4.2,9.8
			c6-7.1,15.5-11.7,26.2-11.7C279.6,29.2,290.8,42.2,290.8,62.3z"/>
		<path class="st1" d="M302,76.8V31h21.4v43.3c0,11.3,6,18,15.9,18c9.9,0,15.7-6.9,15.7-18V31h21.4v45.8c0,21.4-14.7,35.7-37.2,35.7
			C316.9,112.5,302,98.2,302,76.8z"/>
		<path class="st1" d="M387.6,76.8V31H409v43.3c0,11.3,6,18,15.9,18c9.9,0,15.7-6.9,15.7-18V31H462v45.8c0,21.4-14.7,35.7-37.2,35.7
			C402.5,112.5,387.6,98.2,387.6,76.8z"/>
		<path class="st1" d="M551,70.4c0,2.1-0.1,4.2-0.4,6.3h-59.9c1.9,10.8,9,16.8,19.4,16.8c7.4,0,13.5-3.5,16.8-9.2h22.5
			c-5.8,17.3-20.9,28.3-39.3,28.3c-23.4,0-41.1-18.1-41.1-41.8c0-23.9,17.6-41.8,41.1-41.8C534.4,28.8,551,47.6,551,70.4L551,70.4z
			 M491.2,62h38.4c-3-9.7-10-14.9-19.6-14.9C500.5,47.1,493.7,52.7,491.2,62z"/>
		<path class="st1" d="M558.9,2.5h21.4v107.8h-21.4V2.5z"/>
	</g>
	<g>
		<ellipse class="st2" cx="59.6" cy="57.5" rx="55" ry="52.5"/>
		<ellipse class="st3" cx="101.4" cy="57.5" rx="55" ry="52.5"/>
		<ellipse class="st4" cx="153" cy="57.5" rx="55" ry="52.5"/>
	</g>
</g>
</svg>
